<svg width="762" height="728" viewBox="0 0 762 728" fill="none" xmlns="http://www.w3.org/2000/svg">
<path d="M379.082 694.156C564.184 694.156 714.239 607.518 714.239 500.646C714.239 393.773 564.184 307.135 379.082 307.135C193.98 307.135 43.9251 393.773 43.9251 500.646C43.9251 607.518 193.98 694.156 379.082 694.156Z" fill="#F5F5F5"/>
<path d="M496.971 716.464L753.941 568.103C759.572 564.855 759.572 559.59 753.941 556.341L281.585 284.81C278.425 283.209 274.932 282.375 271.389 282.375C267.846 282.375 264.353 283.209 261.193 284.81L4.22341 433.088C-1.4078 436.42 -1.4078 441.618 4.22341 444.867L476.595 716.431C479.75 718.037 483.239 718.877 486.779 718.883C490.319 718.889 493.811 718.06 496.971 716.464Z" fill="#E0E0E0"/>
<path d="M691.264 727.21C690.18 727.189 689.118 726.899 688.173 726.367C687.229 725.835 686.43 725.077 685.85 724.161L643.332 664.501C642.56 663.568 642.07 662.434 641.923 661.232C641.775 660.03 641.975 658.811 642.499 657.72C643.017 656.751 643.795 655.946 644.746 655.395C645.697 654.845 646.783 654.571 647.881 654.604C648.537 654.612 649.19 654.69 649.83 654.838L755.923 680.061C761.021 681.278 761.121 684.876 761.038 685.942C760.955 687.009 760.238 690.541 755.007 690.941L702.593 694.273L697.329 721.646C697.159 723.15 696.45 724.542 695.331 725.563C694.213 726.583 692.761 727.163 691.248 727.194L691.264 727.21Z" fill="#E0E0E0"/>
<path d="M495.455 132.384C495.395 131.902 495.21 131.443 494.917 131.054C494.625 130.665 494.236 130.36 493.789 130.169C492.56 129.544 491.202 129.218 489.824 129.218C488.445 129.218 487.087 129.544 485.858 130.169C485.414 130.364 485.028 130.671 484.736 131.059C484.444 131.447 484.257 131.903 484.192 132.384V389.238H495.405V132.384H495.455Z" fill="#37474F"/>
<path d="M495.455 132.384C495.455 130.718 492.956 129.219 489.857 129.219C486.758 129.219 484.259 130.635 484.259 132.384C484.259 134.134 486.758 135.567 489.857 135.567C492.956 135.567 495.455 134.134 495.455 132.384Z" fill="#455A64"/>
<path d="M522.045 188.73L448.906 146.479L437.91 152.827L448.906 171.87L522.045 214.137V188.73Z" fill="#E79822"/>
<g opacity="0.4">
<path d="M522.045 188.73L448.906 146.479L437.91 152.827L448.906 171.87L522.045 214.137V188.73Z" fill="#315E6D"/>
</g>
<path d="M448.906 146.479L454.404 143.297L527.643 185.614L522.045 188.73L448.906 146.479Z" fill="#E79822"/>
<g opacity="0.3">
<path d="M448.906 146.479L454.404 143.297L527.643 185.614L522.045 188.73L448.906 146.479Z" fill="#315E6D"/>
</g>
<path d="M527.643 211.022L522.045 214.137V188.73L527.643 185.615V211.022Z" fill="#E79822"/>
<path opacity="0.55" d="M527.643 211.022L522.045 214.137V188.73L527.643 185.615V211.022Z" fill="#315E6D"/>
<path d="M491.086 180.724V176.142L492.15 176.764V177.563L492.191 177.587C492.263 177.345 492.384 177.201 492.554 177.155C492.724 177.107 492.92 177.148 493.142 177.278C493.197 177.31 493.256 177.348 493.319 177.394C493.383 177.439 493.439 177.482 493.487 177.524V178.652C493.435 178.604 493.364 178.546 493.273 178.479C493.182 178.412 493.099 178.357 493.023 178.312C492.862 178.218 492.717 178.174 492.59 178.182C492.465 178.188 492.365 178.241 492.292 178.341C492.219 178.442 492.183 178.586 492.183 178.773V181.366L491.086 180.724ZM495.673 183.495C495.266 183.258 494.916 182.957 494.622 182.595C494.33 182.231 494.105 181.827 493.947 181.383C493.789 180.936 493.71 180.471 493.71 179.988C493.71 179.517 493.789 179.149 493.947 178.885C494.105 178.622 494.327 178.474 494.614 178.443C494.903 178.413 495.241 178.511 495.629 178.738C495.89 178.891 496.133 179.081 496.358 179.31C496.585 179.538 496.782 179.798 496.95 180.089C497.12 180.382 497.253 180.701 497.347 181.049C497.441 181.395 497.489 181.762 497.489 182.152V182.501L494.148 180.548V179.761L496.456 181.11C496.456 180.927 496.422 180.745 496.353 180.563C496.284 180.382 496.189 180.216 496.067 180.065C495.947 179.913 495.807 179.791 495.647 179.697C495.481 179.6 495.333 179.558 495.204 179.572C495.077 179.586 494.977 179.646 494.905 179.753C494.833 179.858 494.796 180 494.795 180.18V180.929C494.795 181.156 494.831 181.373 494.903 181.58C494.977 181.789 495.08 181.977 495.214 182.144C495.348 182.312 495.507 182.45 495.691 182.557C495.813 182.628 495.924 182.674 496.026 182.693C496.127 182.713 496.214 182.704 496.286 182.666C496.358 182.629 496.413 182.564 496.451 182.47L497.466 183.141C497.414 183.394 497.308 183.578 497.149 183.696C496.991 183.812 496.786 183.856 496.536 183.827C496.287 183.797 495.999 183.686 495.673 183.495ZM500.008 186.03C499.601 185.792 499.25 185.491 498.957 185.129C498.665 184.765 498.44 184.361 498.282 183.917C498.124 183.47 498.045 183.006 498.045 182.522C498.045 182.051 498.124 181.683 498.282 181.42C498.44 181.156 498.662 181.008 498.949 180.977C499.238 180.947 499.576 181.045 499.964 181.272C500.225 181.425 500.468 181.616 500.693 181.844C500.92 182.072 501.117 182.332 501.285 182.623C501.455 182.916 501.587 183.236 501.682 183.583C501.776 183.929 501.824 184.297 501.824 184.687V185.036L498.483 183.083V182.295L500.791 183.644C500.791 183.461 500.756 183.279 500.688 183.098C500.619 182.916 500.524 182.75 500.402 182.599C500.282 182.447 500.142 182.325 499.982 182.231C499.815 182.134 499.668 182.093 499.539 182.107C499.412 182.12 499.312 182.18 499.24 182.287C499.168 182.392 499.131 182.535 499.129 182.715V183.464C499.129 183.69 499.165 183.907 499.238 184.115C499.311 184.323 499.415 184.511 499.549 184.679C499.683 184.846 499.842 184.984 500.026 185.091C500.148 185.163 500.259 185.208 500.361 185.228C500.462 185.247 500.549 185.238 500.621 185.201C500.693 185.163 500.748 185.098 500.786 185.005L501.8 185.675C501.749 185.928 501.643 186.113 501.484 186.23C501.326 186.347 501.121 186.39 500.871 186.361C500.622 186.331 500.334 186.22 500.008 186.03ZM504.644 184.068V185.023L502.261 183.63V182.675L504.644 184.068ZM502.802 181.893L503.9 182.535V186.807C503.9 186.925 503.915 187.025 503.946 187.109C503.977 187.19 504.02 187.26 504.075 187.318C504.131 187.377 504.197 187.428 504.27 187.472C504.322 187.502 504.374 187.527 504.425 187.547C504.477 187.565 504.516 187.579 504.543 187.589L504.716 188.636C504.661 188.624 504.584 188.602 504.484 188.569C504.385 188.539 504.264 188.485 504.121 188.408C503.857 188.265 503.625 188.089 503.426 187.879C503.228 187.67 503.074 187.435 502.965 187.174C502.855 186.912 502.801 186.632 502.802 186.333V181.893Z" fill="white"/>
<path d="M703.21 516.44L694.263 508.726C694.263 508.726 694.613 481.136 702.677 458.945C714.039 427.74 738.113 420.909 745.461 425.624C752.808 430.339 752.808 440.268 734.815 456.079C724.185 465.442 708.758 486.517 703.21 516.44Z" fill="#E79822"/>
<g opacity="0.15">
<path d="M703.21 516.44L694.263 508.726C694.263 508.726 694.613 481.136 702.677 458.945C714.039 427.74 738.113 420.909 745.461 425.624C752.808 430.339 752.808 440.268 734.815 456.079C724.185 465.442 708.758 486.517 703.21 516.44Z" fill="#315E6D"/>
</g>
<path d="M702.06 502.895H702.16C702.257 502.899 702.353 502.884 702.443 502.852C702.534 502.819 702.617 502.769 702.689 502.704C702.76 502.639 702.817 502.56 702.858 502.473C702.899 502.386 702.922 502.291 702.927 502.195C704.593 471.256 723.186 440.551 739.38 429.922C739.46 429.871 739.53 429.805 739.584 429.727C739.639 429.649 739.678 429.561 739.698 429.468C739.718 429.375 739.719 429.278 739.702 429.185C739.684 429.091 739.649 429.002 739.596 428.922C739.488 428.762 739.321 428.65 739.132 428.609C738.942 428.569 738.744 428.604 738.58 428.706C722.069 439.552 703.193 470.707 701.461 502.111C701.445 502.293 701.498 502.474 701.609 502.619C701.72 502.764 701.881 502.862 702.06 502.895Z" fill="white"/>
<path d="M729.583 538.048C730.999 539.264 734.681 537.898 736.097 537.298C738.542 536.26 740.673 534.6 742.278 532.483C744.099 530.079 745.124 527.167 745.211 524.153C745.261 522.562 745.194 520.97 745.011 519.388L744.611 514.723C744.373 513.197 744.447 511.639 744.827 510.142C745.794 507.21 748.893 505.61 751.675 504.261C754.774 502.761 758.089 500.645 758.789 497.013C759.155 494.161 758.569 491.268 757.123 488.783C755.807 486.234 754.124 483.885 753.008 481.269C752.077 479.409 751.818 477.284 752.275 475.255C752.676 474.024 753.328 472.889 754.191 471.923C756.107 469.957 757.862 467.84 759.439 465.592C760.175 464.451 760.577 463.128 760.601 461.771C760.624 460.414 760.268 459.077 759.572 457.912C758.816 457.077 757.9 456.402 756.878 455.927C755.856 455.451 754.75 455.186 753.624 455.146C751.511 454.992 749.389 455.305 747.41 456.062C741.012 458.145 736.381 464.392 729.783 465.609C727.206 465.898 724.612 466.02 722.019 465.975C720.719 465.967 719.432 466.23 718.239 466.746C717.046 467.263 715.973 468.021 715.089 468.974C711.973 473.023 715.089 479.37 712.556 483.835C710.324 487.784 705.892 488.6 702.877 491.949C701.609 493.444 700.856 495.307 700.727 497.263C700.298 500.527 700.473 503.842 701.244 507.043C702.164 510.259 703.328 513.4 704.726 516.439C704.859 516.556 729.383 537.881 729.583 538.048Z" fill="#E79822"/>
<path d="M714.939 526.219C715.034 526.236 715.132 526.234 715.226 526.212C715.32 526.191 715.409 526.152 715.488 526.096C715.567 526.04 715.635 525.969 715.686 525.888C715.738 525.806 715.772 525.715 715.788 525.619C720.153 496.847 739.729 467.974 751.292 460.727C751.45 460.621 751.563 460.459 751.606 460.274C751.65 460.088 751.621 459.893 751.525 459.728C751.474 459.645 751.407 459.574 751.328 459.517C751.249 459.461 751.16 459.42 751.065 459.399C750.971 459.377 750.873 459.374 750.778 459.391C750.682 459.407 750.591 459.442 750.509 459.494C738.713 466.875 718.771 496.23 714.339 525.386C714.31 525.576 714.357 525.769 714.469 525.925C714.581 526.081 714.75 526.186 714.939 526.219Z" fill="white"/>
<path d="M725.785 493.265H726.001C733.119 492.718 740.275 492.948 747.343 493.948C747.537 493.977 747.735 493.929 747.894 493.813C748.053 493.698 748.16 493.525 748.193 493.332C748.209 493.236 748.206 493.138 748.184 493.044C748.162 492.95 748.12 492.861 748.063 492.783C748.005 492.705 747.932 492.64 747.849 492.591C747.765 492.542 747.673 492.511 747.576 492.499C740.376 491.479 733.086 491.244 725.835 491.799C725.661 491.825 725.503 491.913 725.389 492.046C725.275 492.179 725.212 492.348 725.212 492.524C725.212 492.699 725.275 492.868 725.389 493.001C725.503 493.134 725.661 493.222 725.835 493.248L725.785 493.265Z" fill="white"/>
<path d="M236.069 181.866L227.739 186.681C227.763 186.315 227.763 185.947 227.739 185.581V183.165C227.739 178.867 224.724 177.134 221.075 179.284C219.477 180.265 218.108 181.577 217.06 183.132C216.46 177.734 212.212 175.718 207.064 178.7C204.144 180.618 201.717 183.197 199.98 186.227C198.244 189.258 197.246 192.655 197.067 196.144V199.676C197.035 201.116 197.326 202.544 197.917 203.858L191.003 207.856C189.921 208.569 189.02 209.525 188.372 210.647C187.725 211.769 187.347 213.027 187.271 214.32C187.271 216.703 188.937 217.652 191.003 216.486L236.136 190.429C237.218 189.716 238.119 188.761 238.766 187.639C239.414 186.516 239.791 185.259 239.868 183.965C239.768 181.649 238.102 180.683 236.069 181.866Z" fill="#EBEBEB"/>
<path d="M270.673 203.325L264.559 206.856C264.574 206.585 264.574 206.312 264.559 206.04V204.274C264.559 201.125 262.343 199.842 259.56 201.425C258.389 202.145 257.388 203.112 256.628 204.257C256.178 200.292 253.08 198.826 249.298 200.925C247.148 202.328 245.36 204.218 244.078 206.441C242.795 208.664 242.055 211.158 241.917 213.721V216.37C241.888 217.425 242.098 218.473 242.534 219.435L237.535 222.367C236.738 222.883 236.074 223.581 235.599 224.404C235.124 225.227 234.851 226.15 234.803 227.099C234.803 228.848 236.019 229.548 237.535 228.682L270.673 209.672C271.471 209.156 272.134 208.458 272.609 207.636C273.084 206.813 273.357 205.889 273.405 204.941C273.405 203.158 272.189 202.458 270.673 203.325Z" fill="#EBEBEB"/>
<path d="M731.383 522.654C734.931 525.403 734.548 529.318 730.25 531.767L495.022 667.583C492.368 668.921 489.438 669.618 486.467 669.618C483.495 669.618 480.565 668.921 477.911 667.583L28.3809 408.03C24.0159 405.515 23.6661 401.566 27.3647 398.834C25.1655 400.498 23.3545 402.621 22.0571 405.055C20.7597 407.488 20.0069 410.175 19.8508 412.929V424.241C20.0044 427.214 20.8607 430.107 22.3492 432.685C23.8378 435.262 25.9164 437.45 28.4143 439.069L477.878 698.654C480.531 700.002 483.465 700.704 486.442 700.704C489.418 700.704 492.352 700.002 495.005 698.654L730.233 562.872C732.725 561.252 734.798 559.066 736.283 556.492C737.769 553.918 738.624 551.029 738.78 548.061V536.732C738.629 533.992 737.89 531.317 736.614 528.888C735.337 526.459 733.553 524.333 731.383 522.654Z" fill="#455A64"/>
<path d="M730.25 521.904L280.702 262.352C278.048 261.017 275.118 260.322 272.147 260.322C269.176 260.322 266.247 261.017 263.592 262.352L28.381 398.168C23.6494 400.883 23.6494 405.315 28.381 408.031L477.911 667.583C480.565 668.921 483.495 669.619 486.467 669.619C489.438 669.619 492.368 668.921 495.022 667.583L730.25 531.767C734.965 529.052 734.965 524.553 730.25 521.904Z" fill="#37474F"/>
<path d="M27.3647 398.834C25.1655 400.498 23.3545 402.621 22.0571 405.055C20.7597 407.488 20.0069 410.175 19.8508 412.929V424.241C20.0071 427.213 20.8644 430.106 22.3528 432.683C23.8411 435.26 25.9182 437.448 28.4143 439.069L477.878 698.654C480.517 700.056 483.47 700.762 486.458 700.703V669.615C483.478 669.673 480.531 668.973 477.895 667.583L28.3809 408.03C24.0159 405.515 23.6661 401.566 27.3647 398.834Z" fill="#263238"/>
<path d="M143.371 353.984C145.77 352.601 145.77 350.352 143.371 348.986C142.025 348.296 140.535 347.936 139.023 347.936C137.51 347.936 136.02 348.296 134.674 348.986C132.258 350.369 132.258 352.618 134.674 353.984C136.022 354.666 137.512 355.022 139.023 355.022C140.533 355.022 142.023 354.666 143.371 353.984Z" fill="#315E6D"/>
<path d="M155.133 346.387L188.704 327.011C190.72 325.861 190.82 324.029 188.937 322.946C187.836 322.417 186.627 322.154 185.406 322.177C184.185 322.2 182.986 322.509 181.906 323.079L148.336 342.472C146.336 343.621 146.237 345.437 148.102 346.52C149.202 347.053 150.412 347.318 151.634 347.295C152.855 347.272 154.054 346.961 155.133 346.387Z" fill="#315E6D"/>
<path d="M295.93 283.178C291.898 280.845 287.6 282.195 283.635 284.544L63.7176 411.396C59.6692 413.728 59.6525 417.51 63.7176 419.86L462.717 650.273C464.992 651.423 467.506 652.023 470.056 652.023C472.606 652.023 475.12 651.423 477.395 650.273L697.312 523.404C701.377 521.071 701.361 517.273 697.312 514.94L295.93 283.178Z" fill="#E79822"/>
<path opacity="0.96" d="M295.93 283.178C291.898 280.845 287.6 282.195 283.635 284.544L63.7176 411.396C59.6692 413.728 59.6525 417.51 63.7176 419.86L462.717 650.273C464.992 651.423 467.506 652.023 470.056 652.023C472.606 652.023 475.12 651.423 477.395 650.273L697.312 523.404C701.377 521.071 701.361 517.273 697.312 514.94L295.93 283.178Z" fill="white"/>
<g opacity="0.4">
<path d="M470.114 646.541L552.983 598.725L539.072 594.71C517.278 588.425 494.441 586.6 471.926 589.345C449.412 592.09 427.682 599.349 408.038 610.688L470.114 646.541Z" fill="#E79822"/>
<path d="M567.228 590.479L690.964 519.039L608.146 471.24L559.281 588.196L567.228 590.479Z" fill="#E79822"/>
<path d="M594.351 463.26L546.036 584.364C517.48 575.301 491.856 573.918 462.517 578.966L509.166 464.11L576.941 453.214L594.351 463.26Z" fill="#E79822"/>
<path d="M441.142 583.614L458.069 541.964L326.569 526.369L304.494 550.927L396.126 603.84C410.176 595.147 425.312 588.346 441.142 583.614Z" fill="#E79822"/>
<path d="M525.593 423.608L566.745 447.316L512.415 456.096L525.593 423.608Z" fill="#E79822"/>
<path d="M263.076 443.817C271.164 443.817 277.72 440.035 277.72 435.37C277.72 430.705 271.164 426.924 263.076 426.924C254.988 426.924 248.431 430.705 248.431 435.37C248.431 440.035 254.988 443.817 263.076 443.817Z" fill="#E79822"/>
<path d="M488.757 464.926L285.351 440.818C283.201 445.717 279.536 446.816 270.989 448.682L327.735 513.658L463.017 529.552L488.757 464.926Z" fill="#E79822"/>
<path d="M392.11 403.549L377.116 439.785L284.751 428.823C282.528 426.54 279.817 424.792 276.821 423.708L289.499 391.387L392.11 403.549Z" fill="#E79822"/>
<path d="M509.816 414.462L493.939 453.63L392.644 441.618L408.554 402.449L509.816 414.462Z" fill="#E79822"/>
<path d="M490.823 403.482L323.036 306.619L293.981 380.141L490.823 403.482Z" fill="#E79822"/>
<path d="M250.797 447.532L312.757 518.389L290.682 542.88L170.911 473.739L244.766 444.75C246.659 445.913 248.684 446.847 250.797 447.532Z" fill="#E79822"/>
<path d="M280.336 378.525L311.391 299.888L290.682 287.943L158.765 364.097L280.336 378.525Z" fill="#E79822"/>
<path d="M141.105 374.11L69.832 415.445L159.548 467.242L238.685 436.053C238.518 432.255 240.351 428.606 246.149 425.208C250.914 422.459 256.861 421.426 263.442 421.276L275.788 389.771L141.105 374.11Z" fill="#E79822"/>
</g>
<path d="M300.895 375.843V351.169L338.997 355.684V380.341L300.895 375.843Z" fill="#E79822"/>
<path d="M338.997 355.684L346.844 333.708V360.915L338.997 380.341V355.684Z" fill="#E79822"/>
<path d="M346.844 333.709L309.558 329.21L300.895 351.169L338.997 355.684L346.844 333.709Z" fill="#E79822"/>
<path opacity="0.8" d="M300.895 375.843V351.169L338.997 355.684V380.341L300.895 375.843Z" fill="white"/>
<path opacity="0.75" d="M338.997 355.684L346.844 333.708V360.915L338.997 380.341V355.684Z" fill="white"/>
<path opacity="0.9" d="M346.844 333.709L309.558 329.21L300.895 351.169L338.997 355.684L346.844 333.709Z" fill="white"/>
<path d="M325.869 428.523V417.477L363.988 421.975V433.038L325.869 428.523Z" fill="#E79822"/>
<path d="M363.988 421.975L370.785 402.933V416.527L363.988 433.038V421.975Z" fill="#E79822"/>
<path d="M370.785 402.932L333.483 398.434L325.869 417.477L363.988 421.975L370.785 402.932Z" fill="#E79822"/>
<path opacity="0.8" d="M325.869 428.523V417.477L363.988 421.975V433.038L325.869 428.523Z" fill="white"/>
<path opacity="0.75" d="M363.988 421.975L370.785 402.933V416.527L363.988 433.038V421.975Z" fill="white"/>
<path opacity="0.9" d="M370.785 402.932L333.483 398.434L325.869 417.477L363.988 421.975L370.785 402.932Z" fill="white"/>
<path d="M399.258 573.985V549.327L437.36 553.825V578.499L399.258 573.985Z" fill="#E79822"/>
<path d="M437.36 553.826L445.224 531.867V559.074L437.36 578.5V553.826Z" fill="#E79822"/>
<path d="M445.224 531.867L407.938 527.369L399.258 549.327L437.36 553.826L445.224 531.867Z" fill="#E79822"/>
<path opacity="0.8" d="M399.258 573.985V549.327L437.36 553.825V578.499L399.258 573.985Z" fill="white"/>
<path opacity="0.75" d="M437.36 553.826L445.224 531.867V559.074L437.36 578.5V553.826Z" fill="white"/>
<path opacity="0.9" d="M445.224 531.867L407.938 527.369L399.258 549.327L437.36 553.826L445.224 531.867Z" fill="white"/>
<path d="M398.608 386.939V377.859L417.901 380.141V389.221L398.608 386.939Z" fill="#E79822"/>
<path d="M417.901 380.141L421.866 369.012V379.391L417.901 389.221V380.141Z" fill="#E79822"/>
<path d="M421.866 369.012L402.99 366.746L398.608 377.859L417.901 380.141L421.866 369.012Z" fill="#E79822"/>
<path opacity="0.8" d="M398.608 386.939V377.859L417.901 380.141V389.221L398.608 386.939Z" fill="white"/>
<path opacity="0.75" d="M417.901 380.141L421.866 369.012V379.391L417.901 389.221V380.141Z" fill="white"/>
<path opacity="0.9" d="M421.866 369.012L402.99 366.746L398.608 377.859L417.901 380.141L421.866 369.012Z" fill="white"/>
<path d="M258.028 344.088V330.86L286.084 334.175V347.403L258.028 344.088Z" fill="#E79822"/>
<path d="M286.084 334.175L291.865 318.015V333.109L286.084 347.404V334.175Z" fill="#E79822"/>
<path d="M291.865 318.015L264.409 314.699L258.028 330.86L286.084 334.175L291.865 318.015Z" fill="#E79822"/>
<path opacity="0.8" d="M258.028 344.088V330.86L286.084 334.175V347.403L258.028 344.088Z" fill="white"/>
<path opacity="0.75" d="M286.084 334.175L291.865 318.015V333.109L286.084 347.404V334.175Z" fill="white"/>
<path opacity="0.9" d="M291.865 318.015L264.409 314.699L258.028 330.86L286.084 334.175L291.865 318.015Z" fill="white"/>
<path d="M401.957 438.419V426.64L426.981 429.589V441.385L401.957 438.419Z" fill="#E79822"/>
<path d="M426.981 429.589L432.129 415.178V428.64L426.981 441.385V429.589Z" fill="#E79822"/>
<path d="M432.129 415.178L407.655 412.229L401.957 426.64L426.981 429.589L432.129 415.178Z" fill="#E79822"/>
<path opacity="0.8" d="M401.957 438.419V426.64L426.981 429.589V441.385L401.957 438.419Z" fill="white"/>
<path opacity="0.75" d="M426.981 429.589L432.129 415.178V428.64L426.981 441.385V429.589Z" fill="white"/>
<path opacity="0.9" d="M432.129 415.178L407.655 412.229L401.957 426.64L426.981 429.589L432.129 415.178Z" fill="white"/>
<path d="M288.466 424.358V412.229L314.206 415.261V427.407L288.466 424.358Z" fill="#E79822"/>
<path d="M314.207 415.261L319.505 400.433V414.278L314.207 427.407V415.261Z" fill="#E79822"/>
<path d="M319.504 400.433L294.331 397.401L288.466 412.229L314.206 415.261L319.504 400.433Z" fill="#E79822"/>
<path opacity="0.8" d="M288.466 424.358V412.229L314.206 415.261V427.407L288.466 424.358Z" fill="white"/>
<path opacity="0.75" d="M314.207 415.261L319.505 400.433V414.278L314.207 427.407V415.261Z" fill="white"/>
<path opacity="0.9" d="M319.504 400.433L294.331 397.401L288.466 412.229L314.206 415.261L319.504 400.433Z" fill="white"/>
<path d="M434.328 442.151V430.355L459.352 433.321V445.117L434.328 442.151Z" fill="#E79822"/>
<path d="M459.352 433.321L464.5 418.91V432.355L459.352 445.116V433.321Z" fill="#E79822"/>
<path d="M464.5 418.91L440.026 415.944L434.328 430.356L459.352 433.321L464.5 418.91Z" fill="#E79822"/>
<path opacity="0.8" d="M434.328 442.151V430.355L459.352 433.321V445.117L434.328 442.151Z" fill="white"/>
<path opacity="0.75" d="M459.352 433.321L464.5 418.91V432.355L459.352 445.116V433.321Z" fill="white"/>
<path opacity="0.9" d="M464.5 418.91L440.026 415.944L434.328 430.356L459.352 433.321L464.5 418.91Z" fill="white"/>
<path d="M466.699 445.883V434.087L491.706 437.053V448.832L466.699 445.883Z" fill="#E79822"/>
<path d="M491.706 437.053L496.871 422.625V436.087L491.706 448.832V437.053Z" fill="#E79822"/>
<path d="M496.871 422.625L472.397 419.676L466.699 434.088L491.706 437.053L496.871 422.625Z" fill="#E79822"/>
<path opacity="0.8" d="M466.699 445.883V434.087L491.706 437.053V448.832L466.699 445.883Z" fill="white"/>
<path opacity="0.75" d="M491.706 437.053L496.871 422.625V436.087L491.706 448.832V437.053Z" fill="white"/>
<path opacity="0.9" d="M496.871 422.625L472.397 419.676L466.699 434.088L491.706 437.053L496.871 422.625Z" fill="white"/>
<path d="M167.312 406.548V394.752L192.336 397.718V409.513L167.312 406.548Z" fill="#E79822"/>
<path d="M192.336 397.718L197.484 383.307V396.752L192.336 409.513V397.718Z" fill="#E79822"/>
<path d="M197.484 383.307L173.01 380.341L167.312 394.752L192.336 397.718L197.484 383.307Z" fill="#E79822"/>
<path opacity="0.8" d="M167.312 406.548V394.752L192.336 397.718V409.513L167.312 406.548Z" fill="white"/>
<path opacity="0.75" d="M192.336 397.718L197.484 383.307V396.752L192.336 409.513V397.718Z" fill="white"/>
<path opacity="0.9" d="M197.484 383.307L173.01 380.341L167.312 394.752L192.336 397.718L197.484 383.307Z" fill="white"/>
<path d="M199.683 410.28V398.484L224.707 401.45V413.229L199.683 410.28Z" fill="#E79822"/>
<path d="M224.707 401.45L229.855 387.022V400.484L224.707 413.229V401.45Z" fill="#E79822"/>
<path d="M229.855 387.022L205.381 384.073L199.683 398.484L224.707 401.45L229.855 387.022Z" fill="#E79822"/>
<path opacity="0.8" d="M199.683 410.28V398.484L224.707 401.45V413.229L199.683 410.28Z" fill="white"/>
<path opacity="0.75" d="M224.707 401.45L229.855 387.022V400.484L224.707 413.229V401.45Z" fill="white"/>
<path opacity="0.9" d="M229.855 387.022L205.381 384.073L199.683 398.484L224.707 401.45L229.855 387.022Z" fill="white"/>
<path d="M232.054 413.995V402.216L257.061 405.182V416.961L232.054 413.995Z" fill="#E79822"/>
<path d="M257.061 405.182L262.226 390.754V404.215L257.061 416.96V405.182Z" fill="#E79822"/>
<path d="M262.226 390.754L237.735 387.805L232.054 402.216L257.061 405.182L262.226 390.754Z" fill="#E79822"/>
<path opacity="0.8" d="M232.054 413.995V402.216L257.061 405.182V416.961L232.054 413.995Z" fill="white"/>
<path opacity="0.75" d="M257.061 405.182L262.226 390.754V404.215L257.061 416.96V405.182Z" fill="white"/>
<path opacity="0.9" d="M262.226 390.754L237.735 387.805L232.054 402.216L257.061 405.182L262.226 390.754Z" fill="white"/>
<path d="M555.066 368.712V361.698L576.274 364.197V371.211L555.066 368.712Z" fill="#E79822"/>
<path opacity="0.8" d="M555.066 368.712V361.698L576.274 364.197V371.211L555.066 368.712Z" fill="white"/>
<path d="M576.274 364.197L579.373 355.101V363.631L576.274 371.211V364.197Z" fill="#E79822"/>
<path opacity="0.75" d="M576.274 364.197L579.373 355.101V363.631L576.274 371.211V364.197Z" fill="white"/>
<path d="M579.373 355.101L558.648 352.618L555.066 361.698L576.274 364.197L579.373 355.101Z" fill="#E79822"/>
<path opacity="0.9" d="M579.373 355.101L558.648 352.618L555.066 361.698L576.274 364.197L579.373 355.101Z" fill="white"/>
<path d="M404.689 517.106V505.311L429.713 508.276V520.072L404.689 517.106Z" fill="#E79822"/>
<path d="M429.713 508.276L434.861 493.848V507.31L429.713 520.072V508.276Z" fill="#E79822"/>
<path d="M434.861 493.848L410.387 490.899L404.689 505.311L429.713 508.276L434.861 493.848Z" fill="#E79822"/>
<path opacity="0.8" d="M404.689 517.106V505.311L429.713 508.276V520.072L404.689 517.106Z" fill="white"/>
<path opacity="0.75" d="M429.713 508.276L434.861 493.848V507.31L429.713 520.072V508.276Z" fill="white"/>
<path opacity="0.9" d="M434.861 493.848L410.387 490.899L404.689 505.311L429.713 508.276L434.861 493.848Z" fill="white"/>
<path d="M435.911 520.821V509.042L460.935 511.991V523.787L435.911 520.821Z" fill="#E79822"/>
<path d="M460.935 511.991L466.099 497.58V511.025L460.935 523.787V511.991Z" fill="#E79822"/>
<path d="M466.099 497.58L441.608 494.631L435.911 509.043L460.935 511.991L466.099 497.58Z" fill="#E79822"/>
<path opacity="0.8" d="M435.911 520.821V509.042L460.935 511.991V523.787L435.911 520.821Z" fill="white"/>
<path opacity="0.75" d="M460.935 511.991L466.099 497.58V511.025L460.935 523.787V511.991Z" fill="white"/>
<path opacity="0.9" d="M466.099 497.58L441.608 494.631L435.911 509.043L460.935 511.991L466.099 497.58Z" fill="white"/>
<path d="M325.652 556.608V544.829L350.676 547.778V559.573L325.652 556.608Z" fill="#E79822"/>
<path d="M350.676 547.778L355.824 533.367V546.828L350.676 559.573V547.778Z" fill="#E79822"/>
<path d="M355.824 533.367L331.35 530.401L325.652 544.829L350.676 547.778L355.824 533.367Z" fill="#E79822"/>
<path opacity="0.8" d="M325.652 556.608V544.829L350.676 547.778V559.573L325.652 556.608Z" fill="white"/>
<path opacity="0.75" d="M350.676 547.778L355.824 533.367V546.828L350.676 559.573V547.778Z" fill="white"/>
<path opacity="0.9" d="M355.824 533.367L331.35 530.401L325.652 544.829L350.676 547.778L355.824 533.367Z" fill="white"/>
<path d="M356.874 560.34V548.544L381.898 551.51V563.289L356.874 560.34Z" fill="#E79822"/>
<path d="M381.898 551.51L387.062 537.082V550.543L381.898 563.289V551.51Z" fill="#E79822"/>
<path d="M387.062 537.082L362.572 534.133L356.874 548.544L381.898 551.51L387.062 537.082Z" fill="#E79822"/>
<path opacity="0.8" d="M356.874 560.34V548.544L381.898 551.51V563.289L356.874 560.34Z" fill="white"/>
<path opacity="0.75" d="M381.898 551.51L387.062 537.082V550.543L381.898 563.289V551.51Z" fill="white"/>
<path opacity="0.9" d="M387.062 537.082L362.572 534.133L356.874 548.544L381.898 551.51L387.062 537.082Z" fill="white"/>
<path d="M546.735 500.646V488.85L571.743 491.816V503.595L546.735 500.646Z" fill="#E79822"/>
<path d="M571.743 491.816L576.907 477.388V490.849L571.743 503.594V491.816Z" fill="#E79822"/>
<path d="M576.907 477.388L552.417 474.439L546.735 488.85L571.743 491.816L576.907 477.388Z" fill="#E79822"/>
<path opacity="0.8" d="M546.735 500.646V488.85L571.743 491.816V503.595L546.735 500.646Z" fill="white"/>
<path opacity="0.75" d="M571.743 491.816L576.907 477.388V490.849L571.743 503.594V491.816Z" fill="white"/>
<path opacity="0.9" d="M576.907 477.388L552.417 474.439L546.735 488.85L571.743 491.816L576.907 477.388Z" fill="white"/>
<path d="M536.922 524.936V513.141L561.93 516.106V527.902L536.922 524.936Z" fill="#E79822"/>
<path d="M561.93 516.106L567.095 501.678V515.14L561.93 527.902V516.106Z" fill="#E79822"/>
<path d="M567.094 501.679L542.604 498.73L536.922 513.141L561.93 516.107L567.094 501.679Z" fill="#E79822"/>
<path opacity="0.8" d="M536.922 524.936V513.141L561.93 516.106V527.902L536.922 524.936Z" fill="white"/>
<path opacity="0.75" d="M561.93 516.106L567.095 501.678V515.14L561.93 527.902V516.106Z" fill="white"/>
<path opacity="0.9" d="M567.094 501.679L542.604 498.73L536.922 513.141L561.93 516.107L567.094 501.679Z" fill="white"/>
<path d="M527.093 549.227V537.432L552.117 540.397V552.193L527.093 549.227Z" fill="#E79822"/>
<path d="M552.117 540.397L557.281 525.969V539.431L552.117 552.193V540.397Z" fill="#E79822"/>
<path d="M557.282 525.969L532.791 523.021L527.093 537.432L552.117 540.397L557.282 525.969Z" fill="#E79822"/>
<path opacity="0.8" d="M527.093 549.227V537.432L552.117 540.397V552.193L527.093 549.227Z" fill="white"/>
<path opacity="0.75" d="M552.117 540.397L557.281 525.969V539.431L552.117 552.193V540.397Z" fill="white"/>
<path opacity="0.9" d="M557.282 525.969L532.791 523.021L527.093 537.432L552.117 540.397L557.282 525.969Z" fill="white"/>
<path d="M517.28 573.518V561.739L542.304 564.688V576.484L517.28 573.518Z" fill="#E79822"/>
<path d="M542.304 564.688L547.469 550.277V563.722L542.304 576.484V564.688Z" fill="#E79822"/>
<path d="M547.469 550.277L522.978 547.312L517.28 561.739L542.304 564.688L547.469 550.277Z" fill="#E79822"/>
<path opacity="0.8" d="M517.28 573.518V561.739L542.304 564.688V576.484L517.28 573.518Z" fill="white"/>
<path opacity="0.75" d="M542.304 564.688L547.469 550.277V563.722L542.304 576.484V564.688Z" fill="white"/>
<path opacity="0.9" d="M547.469 550.277L522.978 547.312L517.28 561.739L542.304 564.688L547.469 550.277Z" fill="white"/>
<path d="M504.252 495.698V483.919L529.275 486.868V498.663L504.252 495.698Z" fill="#E79822"/>
<path d="M529.275 486.868L534.44 472.456V485.901L529.275 498.663V486.868Z" fill="#E79822"/>
<path d="M534.44 472.456L509.949 469.491L504.252 483.919L529.275 486.867L534.44 472.456Z" fill="#E79822"/>
<path opacity="0.8" d="M504.252 495.698V483.919L529.275 486.868V498.663L504.252 495.698Z" fill="white"/>
<path opacity="0.75" d="M529.275 486.868L534.44 472.456V485.901L529.275 498.663V486.868Z" fill="white"/>
<path opacity="0.9" d="M534.44 472.456L509.949 469.491L504.252 483.919L529.275 486.867L534.44 472.456Z" fill="white"/>
<path d="M494.438 519.988V508.209L519.462 511.158V522.954L494.438 519.988Z" fill="#E79822"/>
<path d="M519.462 511.158L524.627 496.747V510.209L519.462 522.954V511.158Z" fill="#E79822"/>
<path d="M524.627 496.747L500.136 493.798L494.438 508.21L519.462 511.158L524.627 496.747Z" fill="#E79822"/>
<path opacity="0.8" d="M494.438 519.988V508.209L519.462 511.158V522.954L494.438 519.988Z" fill="white"/>
<path opacity="0.75" d="M519.462 511.158L524.627 496.747V510.209L519.462 522.954V511.158Z" fill="white"/>
<path opacity="0.9" d="M524.627 496.747L500.136 493.798L494.438 508.21L519.462 511.158L524.627 496.747Z" fill="white"/>
<path d="M484.626 544.296V532.5L509.649 535.466V547.245L484.626 544.296Z" fill="#E79822"/>
<path d="M509.65 535.466L514.814 521.038V534.5L509.65 547.245V535.466Z" fill="#E79822"/>
<path d="M514.814 521.038L490.323 518.089L484.626 532.5L509.649 535.466L514.814 521.038Z" fill="#E79822"/>
<path opacity="0.8" d="M484.626 544.296V532.5L509.649 535.466V547.245L484.626 544.296Z" fill="white"/>
<path opacity="0.75" d="M509.65 535.466L514.814 521.038V534.5L509.65 547.245V535.466Z" fill="white"/>
<path opacity="0.9" d="M514.814 521.038L490.323 518.089L484.626 532.5L509.649 535.466L514.814 521.038Z" fill="white"/>
<path d="M474.813 568.587V556.791L499.837 559.757V571.535L474.813 568.587Z" fill="#E79822"/>
<path d="M499.837 559.757L505.001 545.329V558.79L499.837 571.536V559.757Z" fill="#E79822"/>
<path d="M505.001 545.329L480.51 542.38L474.813 556.791L499.837 559.757L505.001 545.329Z" fill="#E79822"/>
<path opacity="0.8" d="M474.813 568.587V556.791L499.837 559.757V571.535L474.813 568.587Z" fill="white"/>
<path opacity="0.75" d="M499.837 559.757L505.001 545.329V558.79L499.837 571.536V559.757Z" fill="white"/>
<path opacity="0.9" d="M505.001 545.329L480.51 542.38L474.813 556.791L499.837 559.757L505.001 545.329Z" fill="white"/>
<path d="M588.187 540.131V530.868L607.879 533.2V542.463L588.187 540.131Z" fill="#E79822"/>
<path d="M607.879 533.2L611.928 521.854V532.434L607.879 542.463V533.2Z" fill="#E79822"/>
<path d="M611.928 521.854L592.668 519.522L588.187 530.868L607.879 533.2L611.928 521.854Z" fill="#E79822"/>
<path opacity="0.8" d="M588.187 540.131V530.868L607.879 533.2V542.463L588.187 540.131Z" fill="white"/>
<path opacity="0.75" d="M607.879 533.2L611.928 521.854V532.434L607.879 542.463V533.2Z" fill="white"/>
<path opacity="0.9" d="M611.928 521.854L592.668 519.522L588.187 530.868L607.879 533.2L611.928 521.854Z" fill="white"/>
<path d="M578.357 567.454V558.174L598.033 560.506V569.769L578.357 567.454Z" fill="#E79822"/>
<path d="M598.033 560.506L602.098 549.161V559.74L598.033 569.77V560.506Z" fill="#E79822"/>
<path d="M602.098 549.161L582.839 546.828L578.357 558.174L598.033 560.506L602.098 549.161Z" fill="#E79822"/>
<path opacity="0.8" d="M578.357 567.454V558.174L598.033 560.506V569.769L578.357 567.454Z" fill="white"/>
<path opacity="0.75" d="M598.033 560.506L602.098 549.161V559.74L598.033 569.77V560.506Z" fill="white"/>
<path opacity="0.9" d="M602.098 549.161L582.839 546.828L578.357 558.174L598.033 560.506L602.098 549.161Z" fill="white"/>
<path d="M367.02 512.225V468.041L398.042 471.707V515.873L367.02 512.225Z" fill="#E79822"/>
<path opacity="0.8" d="M367.02 512.225V468.041L398.042 471.707V515.873L367.02 512.225Z" fill="white"/>
<path d="M398.042 471.707L402.057 460.927V507.31L398.042 515.873V471.707Z" fill="#E79822"/>
<path opacity="0.75" d="M398.042 471.707L402.057 460.927V507.31L398.042 515.873V471.707Z" fill="white"/>
<path d="M402.057 460.927L371.752 457.295L367.02 468.041L398.042 471.707L402.057 460.927Z" fill="#E79822"/>
<path opacity="0.9" d="M402.057 460.927L371.752 457.295L367.02 468.041L398.042 471.707L402.057 460.927Z" fill="white"/>
<path d="M210.212 363.731V311.484L228.089 313.483V365.713L210.212 363.731Z" fill="#E79822"/>
<path opacity="0.8" d="M210.212 363.731V311.484L228.089 313.483V365.713L210.212 363.731Z" fill="white"/>
<path d="M228.089 313.483L232.104 302.704V357.15L228.089 365.713V313.483Z" fill="#E79822"/>
<path opacity="0.75" d="M228.089 313.483L232.104 302.704V357.15L228.089 365.713V313.483Z" fill="white"/>
<path d="M232.104 302.704L214.944 300.738L210.212 311.484L228.089 313.483L232.104 302.704Z" fill="#E79822"/>
<path opacity="0.9" d="M232.104 302.704L214.944 300.738L210.212 311.484L228.089 313.483L232.104 302.704Z" fill="white"/>
<path d="M230.088 361.898V315.832L239.551 316.848V362.931L230.088 361.898Z" fill="#E79822"/>
<path opacity="0.8" d="M230.088 361.898V315.832L239.551 316.848V362.931L230.088 361.898Z" fill="white"/>
<path d="M239.551 316.848L241.034 312.133V360.082L239.551 362.931V316.848Z" fill="#E79822"/>
<path opacity="0.75" d="M239.551 316.848L241.034 312.133V360.082L239.551 362.931V316.848Z" fill="white"/>
<path d="M241.034 312.133L232.171 311.117L230.088 315.832L239.551 316.848L241.034 312.133Z" fill="#E79822"/>
<path opacity="0.9" d="M241.034 312.133L232.171 311.117L230.088 315.832L239.551 316.848L241.034 312.133Z" fill="white"/>
<path d="M329.934 507.81V463.626L360.956 467.275V511.458L329.934 507.81Z" fill="#E79822"/>
<path opacity="0.8" d="M329.934 507.81V463.626L360.956 467.275V511.458L329.934 507.81Z" fill="white"/>
<path d="M360.956 467.275L364.987 456.512V502.895L360.956 511.458V467.275Z" fill="#E79822"/>
<path opacity="0.75" d="M360.956 467.275L364.987 456.512V502.895L360.956 511.458V467.275Z" fill="white"/>
<path d="M364.987 456.512L334.682 452.88L329.934 463.626L360.956 467.275L364.987 456.512Z" fill="#E79822"/>
<path opacity="0.9" d="M364.987 456.512L334.682 452.88L329.934 463.626L360.956 467.275L364.987 456.512Z" fill="white"/>
<path d="M248.448 368.712V355.484L276.487 358.799V372.027L248.448 368.712Z" fill="#E79822"/>
<path d="M276.487 358.799L282.285 342.639V357.733L276.487 372.028V358.799Z" fill="#E79822"/>
<path d="M282.285 342.639L254.829 339.323L248.448 355.484L276.487 358.799L282.285 342.639Z" fill="#E79822"/>
<path opacity="0.8" d="M248.448 368.712V355.484L276.487 358.799V372.027L248.448 368.712Z" fill="white"/>
<path opacity="0.75" d="M276.487 358.799L282.285 342.639V357.733L276.487 372.028V358.799Z" fill="white"/>
<path opacity="0.9" d="M282.285 342.639L254.829 339.323L248.448 355.484L276.487 358.799L282.285 342.639Z" fill="white"/>
<path d="M223.974 463.493L203.881 475.089L187.788 465.859L208.913 453.663L223.974 463.493Z" fill="#E79822"/>
<path opacity="0.9" d="M223.974 463.493L203.881 475.089L187.788 465.859L208.913 453.663L223.974 463.493Z" fill="white"/>
<path d="M187.788 475.422V465.859L203.881 475.089V484.702L187.788 475.422Z" fill="#E79822"/>
<path opacity="0.8" d="M187.788 475.422V465.859L203.881 475.089V484.702L187.788 475.422Z" fill="white"/>
<path d="M223.974 463.493V473.106L203.881 484.702V475.089L223.974 463.493Z" fill="#E79822"/>
<path opacity="0.75" d="M223.974 463.493V473.106L203.881 484.702V475.089L223.974 463.493Z" fill="white"/>
<path d="M246.432 476.738L226.34 488.334L210.262 479.104L231.388 466.925L246.432 476.738Z" fill="#E79822"/>
<path opacity="0.9" d="M246.432 476.738L226.34 488.334L210.262 479.104L231.388 466.925L246.432 476.738Z" fill="white"/>
<path d="M210.262 488.667V479.104L226.34 488.334V497.947L210.262 488.667Z" fill="#E79822"/>
<path opacity="0.8" d="M210.262 488.667V479.104L226.34 488.334V497.947L210.262 488.667Z" fill="white"/>
<path d="M246.432 476.738V486.351L226.34 497.947V488.334L246.432 476.738Z" fill="#E79822"/>
<path opacity="0.75" d="M246.432 476.738V486.351L226.34 497.947V488.334L246.432 476.738Z" fill="white"/>
<path d="M269.357 489.866L249.264 501.445L233.17 492.232L254.296 480.037L269.357 489.866Z" fill="#E79822"/>
<path opacity="0.9" d="M269.357 489.866L249.264 501.445L233.17 492.232L254.296 480.037L269.357 489.866Z" fill="white"/>
<path d="M233.17 501.779V492.232L249.264 501.445V511.075L233.17 501.779Z" fill="#E79822"/>
<path opacity="0.8" d="M233.17 501.779V492.232L249.264 501.445V511.075L233.17 501.779Z" fill="white"/>
<path d="M269.357 489.866V499.48L249.264 511.075V501.445L269.357 489.866Z" fill="#E79822"/>
<path opacity="0.75" d="M269.357 489.866V499.48L249.264 511.075V501.445L269.357 489.866Z" fill="white"/>
<path d="M301.878 495.781L281.785 507.376L265.691 498.147L286.817 485.968L301.878 495.781Z" fill="#E79822"/>
<path opacity="0.9" d="M301.878 495.781L281.785 507.376L265.691 498.147L286.817 485.968L301.878 495.781Z" fill="white"/>
<path d="M265.691 521.154V498.146L281.785 507.376V530.451L265.691 521.154Z" fill="#E79822"/>
<path opacity="0.8" d="M265.691 521.154V498.146L281.785 507.376V530.451L265.691 521.154Z" fill="white"/>
<path d="M301.878 495.781V518.839L281.785 530.451V507.376L301.878 495.781Z" fill="#E79822"/>
<path opacity="0.75" d="M301.878 495.781V518.839L281.785 530.451V507.376L301.878 495.781Z" fill="white"/>
<path d="M181.74 441.685L159.965 449.831L143.871 440.618L166.695 431.872L181.74 441.685Z" fill="#E79822"/>
<path opacity="0.9" d="M181.74 441.685L159.965 449.831L143.871 440.618L166.695 431.872L181.74 441.685Z" fill="white"/>
<path d="M143.871 450.165V440.618L159.965 449.831V459.461L143.871 450.165Z" fill="#E79822"/>
<path opacity="0.8" d="M143.871 450.165V440.618L159.965 449.831V459.461L143.871 450.165Z" fill="white"/>
<path d="M181.74 441.685V451.298L159.965 459.461V449.831L181.74 441.685Z" fill="#E79822"/>
<path opacity="0.75" d="M181.74 441.685V451.298L159.965 459.461V449.831L181.74 441.685Z" fill="white"/>
<path d="M216.66 428.356L194.868 436.52L178.774 427.29L201.599 418.543L216.66 428.356Z" fill="#E79822"/>
<path opacity="0.9" d="M216.66 428.356L194.868 436.52L178.774 427.29L201.599 418.543L216.66 428.356Z" fill="white"/>
<path d="M178.774 436.853V427.29L194.868 436.52V446.133L178.774 436.853Z" fill="#E79822"/>
<path opacity="0.8" d="M178.774 436.853V427.29L194.868 436.52V446.133L178.774 436.853Z" fill="white"/>
<path d="M216.66 428.356V437.986L194.868 446.133V436.52L216.66 428.356Z" fill="#E79822"/>
<path opacity="0.75" d="M216.66 428.356V437.986L194.868 446.133V436.52L216.66 428.356Z" fill="white"/>
<path d="M348.86 380.541V366.613L389.578 371.411V385.339L348.86 380.541Z" fill="#E79822"/>
<path opacity="0.75" d="M348.86 380.541V366.613L389.578 371.411V385.339L348.86 380.541Z" fill="white"/>
<path d="M389.578 371.411L398.175 347.337V364.064L389.578 385.339V371.411Z" fill="#E79822"/>
<path opacity="0.65" d="M389.578 371.411L398.175 347.337V364.064L389.578 385.339V371.411Z" fill="white"/>
<path d="M398.175 347.337L358.357 342.539L348.86 366.613L389.578 371.411L398.175 347.337Z" fill="#E79822"/>
<path opacity="0.9" d="M398.175 347.337L358.357 342.539L348.86 366.613L389.578 371.411L398.175 347.337Z" fill="white"/>
<path d="M354.091 363.148V295.207L385.979 298.955V366.896L354.091 363.148Z" fill="#E79822"/>
<path opacity="0.75" d="M354.091 363.148V295.207L385.979 298.955V366.896L354.091 363.148Z" fill="white"/>
<path d="M385.979 298.955L392.943 279.462V349.653L385.979 366.896V298.955Z" fill="#E79822"/>
<path opacity="0.65" d="M385.979 298.955L392.943 279.462V349.653L385.979 366.896V298.955Z" fill="white"/>
<path d="M392.943 279.462L361.789 275.714L354.091 295.207L385.979 298.955L392.943 279.462Z" fill="#E79822"/>
<path opacity="0.9" d="M392.943 279.462L361.789 275.714L354.091 295.207L385.979 298.955L392.943 279.462Z" fill="white"/>
<path d="M364.038 290.825V253.789L381.431 255.838V292.874L364.038 290.825Z" fill="#E79822"/>
<path opacity="0.75" d="M364.038 290.825V253.789L381.431 255.838V292.874L364.038 290.825Z" fill="white"/>
<path d="M381.431 255.838L385.23 245.209V283.478L381.431 292.874V255.838Z" fill="#E79822"/>
<path opacity="0.65" d="M381.431 255.838L385.23 245.209V283.478L381.431 292.874V255.838Z" fill="white"/>
<path d="M385.23 245.209L368.219 243.159L364.038 253.789L381.431 255.838L385.23 245.209Z" fill="#E79822"/>
<path opacity="0.9" d="M385.23 245.209L368.219 243.159L364.038 253.789L381.431 255.838L385.23 245.209Z" fill="white"/>
<path d="M548.451 478.271V371.211L580.356 374.96V482.019L548.451 478.271Z" fill="#E79822"/>
<path opacity="0.75" d="M548.451 478.271V371.211L580.356 374.96V482.019L548.451 478.271Z" fill="white"/>
<path d="M580.356 374.96L585.021 361.315V470.624L580.356 482.019V374.96Z" fill="#E79822"/>
<path opacity="0.65" d="M580.356 374.96L585.021 361.315V470.624L580.356 482.019V374.96Z" fill="white"/>
<path d="M585.021 361.315L553.849 357.566L548.451 371.211L580.356 374.96L585.021 361.315Z" fill="#E79822"/>
<path opacity="0.9" d="M585.021 361.315L553.849 357.566L548.451 371.211L580.356 374.96L585.021 361.315Z" fill="white"/>
<path d="M600.065 512.424V413.295L627.872 416.377V515.523L600.065 512.424Z" fill="#E79822"/>
<path opacity="0.75" d="M600.065 512.424V413.295L627.872 416.377V515.523L600.065 512.424Z" fill="white"/>
<path d="M627.872 416.378L634.136 399.634V502.195L627.872 515.523V416.378Z" fill="#E79822"/>
<path opacity="0.65" d="M627.872 416.378L634.136 399.634V502.195L627.872 515.523V416.378Z" fill="white"/>
<path d="M634.136 399.634L607.429 396.552L600.065 413.295L627.872 416.377L634.136 399.634Z" fill="#E79822"/>
<path opacity="0.9" d="M634.136 399.634L607.429 396.552L600.065 413.295L627.872 416.377L634.136 399.634Z" fill="white"/>
<path d="M631.004 509.592V420.059L645.731 421.642V511.175L631.004 509.592Z" fill="#E79822"/>
<path opacity="0.75" d="M631.004 509.592V420.059L645.731 421.642V511.175L631.004 509.592Z" fill="white"/>
<path d="M645.732 421.642L648.014 414.295V506.777L645.732 511.175V421.642Z" fill="#E79822"/>
<path opacity="0.65" d="M645.732 421.642L648.014 414.295V506.777L645.732 511.175V421.642Z" fill="white"/>
<path d="M648.014 414.295L634.236 412.729L631.004 420.059L645.731 421.642L648.014 414.295Z" fill="#E79822"/>
<path opacity="0.9" d="M648.014 414.295L634.236 412.729L631.004 420.059L645.731 421.642L648.014 414.295Z" fill="white"/>
<path d="M82.3773 403.216L122.995 426.657V439.402L82.3773 415.961V403.216Z" fill="#E79822"/>
<path opacity="0.35" d="M82.3773 403.216L122.995 426.657V439.402L82.3773 415.961V403.216Z" fill="#315E6D"/>
<path d="M163.597 415.961V403.216L122.995 426.657V439.402" fill="#E79822"/>
<path opacity="0.15" d="M163.597 403.216L122.995 426.657V439.402L163.597 415.961V403.216Z" fill="#315E6D"/>
<path d="M163.597 403.216L122.995 379.775L82.3773 403.216L122.995 426.657L163.597 403.216Z" fill="#E79822"/>
<path opacity="0.5" d="M163.597 403.216L122.995 379.775L82.3773 403.216L122.995 426.657L163.597 403.216Z" fill="#315E6D"/>
<path d="M82.3773 401.25L122.995 424.691V420.792L82.3773 397.351V401.25Z" fill="#E79822"/>
<path opacity="0.35" d="M82.3773 401.25L122.995 424.691V420.792L82.3773 397.351V401.25Z" fill="#315E6D"/>
<path d="M122.995 424.691L163.597 401.25V397.351L122.995 420.792V424.691Z" fill="#E79822"/>
<path opacity="0.15" d="M122.995 424.691L163.597 401.25V397.351L122.995 420.792V424.691Z" fill="#315E6D"/>
<path d="M163.597 397.351L122.995 373.91L82.3773 397.351L122.995 420.792L163.597 397.351Z" fill="#E79822"/>
<path opacity="0.5" d="M163.597 397.351L122.995 373.91L82.3773 397.351L122.995 420.792L163.597 397.351Z" fill="#315E6D"/>
<path d="M82.3773 394.952L122.995 418.393V414.495L82.3773 391.054V394.952Z" fill="#E79822"/>
<path opacity="0.35" d="M82.3773 394.952L122.995 418.393V414.495L82.3773 391.054V394.952Z" fill="#315E6D"/>
<path d="M122.995 418.393L163.597 394.952V391.054L122.995 414.495V418.393Z" fill="#E79822"/>
<path opacity="0.15" d="M122.995 418.393L163.597 394.952V391.054L122.995 414.495V418.393Z" fill="#315E6D"/>
<path d="M163.597 391.054L122.995 367.613L82.3773 391.054L122.995 414.495L163.597 391.054Z" fill="#E79822"/>
<path opacity="0.5" d="M163.597 391.054L122.995 367.613L82.3773 391.054L122.995 414.495L163.597 391.054Z" fill="#315E6D"/>
<path d="M122.995 410.096V311.667L89.158 292.141V390.554L122.995 410.096Z" fill="#E79822"/>
<path d="M122.995 311.667L156.833 292.141V390.554L122.995 410.096V311.667Z" fill="#E79822"/>
<path d="M156.833 292.141L122.995 272.598L89.158 292.141L122.995 311.667L156.833 292.141Z" fill="#E79822"/>
<path opacity="0.4" d="M156.833 292.141L122.995 272.598L89.158 292.141L122.995 311.667L156.833 292.141Z" fill="#315E6D"/>
<path opacity="0.2" d="M122.995 410.096V311.667L89.158 292.141V390.554L122.995 410.096Z" fill="#315E6D"/>
<path d="M122.995 307.768V224.866L95.9221 208.872V292.141L122.995 307.768Z" fill="#E79822"/>
<path d="M122.995 307.768V224.866L150.052 208.872V292.141L122.995 307.768Z" fill="#E79822"/>
<path d="M150.052 208.872L122.995 193.428L95.9221 208.872L122.995 224.866L150.052 208.872Z" fill="#E79822"/>
<path opacity="0.4" d="M150.052 208.872L122.995 193.428L95.9221 208.872L122.995 224.866L150.052 208.872Z" fill="#315E6D"/>
<path opacity="0.2" d="M122.995 307.768V224.866L95.9221 208.872V292.141L122.995 307.768Z" fill="#315E6D"/>
<path d="M122.995 218.819V207.106L139.906 197.327V209.056L122.995 218.819Z" fill="#E79822"/>
<path d="M106.068 209.056V197.327L122.995 207.106V218.819L106.068 209.056Z" fill="#E79822"/>
<path opacity="0.2" d="M106.068 209.056V197.327L122.995 207.106V218.819L106.068 209.056Z" fill="#315E6D"/>
<path d="M139.906 197.327L122.995 187.564L106.068 197.327L122.995 207.106L139.906 197.327Z" fill="#E79822"/>
<path opacity="0.4" d="M139.906 197.327L122.995 187.564L106.068 197.327L122.995 207.106L139.906 197.327Z" fill="#315E6D"/>
<path d="M122.995 203.191V148.495L133.141 197.327L122.995 203.191Z" fill="#E79822"/>
<path opacity="0.1" d="M122.995 203.191V148.495L133.141 197.327L122.995 203.191Z" fill="#315E6D"/>
<path d="M112.716 197.327L122.995 148.495V203.191L112.716 197.327Z" fill="#E79822"/>
<path opacity="0.25" d="M112.716 197.327L122.995 148.495V203.191L112.716 197.327Z" fill="#315E6D"/>
<path d="M559.831 595.593C559.699 595.588 559.569 595.56 559.447 595.51C559.231 595.393 536.823 584.147 502.369 582.565C467.915 580.982 451.488 587.563 451.321 587.563C451.168 587.622 451 587.636 450.839 587.602C450.678 587.568 450.53 587.488 450.413 587.371C450.297 587.255 450.216 587.107 450.183 586.946C450.149 586.784 450.162 586.617 450.222 586.463L500.886 461.244L382.431 447.432C382.301 447.416 382.177 447.371 382.067 447.299C381.958 447.227 381.867 447.131 381.801 447.018C381.734 446.905 381.695 446.779 381.686 446.648C381.677 446.518 381.698 446.387 381.748 446.266L400.524 399.817L160.848 371.361C160.737 371.351 160.63 371.318 160.532 371.265C160.435 371.212 160.349 371.14 160.28 371.052C160.212 370.965 160.161 370.865 160.133 370.757C160.105 370.65 160.098 370.538 160.115 370.428C160.14 370.205 160.252 370.001 160.427 369.861C160.601 369.721 160.825 369.655 161.048 369.678L401.84 398.317C401.968 398.336 402.09 398.382 402.196 398.455C402.303 398.527 402.392 398.622 402.457 398.734C402.514 398.851 402.544 398.979 402.544 399.109C402.544 399.239 402.514 399.367 402.457 399.484L383.664 445.949L502.119 459.761C502.248 459.776 502.371 459.82 502.481 459.889C502.59 459.958 502.683 460.051 502.752 460.161C502.81 460.28 502.84 460.411 502.84 460.544C502.84 460.677 502.81 460.808 502.752 460.927L452.371 585.397C457.519 583.731 473.596 579.566 502.352 580.882C537.189 582.465 559.897 593.877 560.13 593.994C560.23 594.043 560.318 594.112 560.391 594.196C560.463 594.28 560.518 594.377 560.552 594.483C560.586 594.589 560.599 594.7 560.589 594.81C560.58 594.921 560.549 595.028 560.497 595.127C560.434 595.254 560.34 595.363 560.223 595.445C560.107 595.526 559.972 595.577 559.831 595.593Z" fill="#455A64"/>
<path d="M93.8229 73.5733V68.5752C93.9039 62.1689 94.9716 55.8134 96.9884 49.7323C102.136 33.8217 112.982 18.5941 125.528 11.4134C133.508 6.79851 140.789 6.23206 146.37 8.99768L135.391 2.6834C132.683 0.897961 129.504 -0.03624 126.261 0.00107582C125.749 -0.00395474 125.237 0.0238716 124.728 0.0843796C124.195 0.0843796 123.662 0.18434 123.062 0.267642C122.501 0.332421 121.944 0.432584 121.396 0.567529C120.833 0.688416 120.277 0.838564 119.73 1.01736C118.554 1.36358 117.402 1.78655 116.281 2.28355C115.698 2.53346 115.115 2.83334 114.515 3.11657C113.915 3.3998 113.316 3.74966 112.732 4.08287C95.3224 14.1457 81.1444 39.7361 81.1444 61.3946V66.3927C81.1444 87.9346 110.117 111.376 110.117 111.376L121.779 118.04C121.574 117.904 121.379 117.754 121.196 117.59C112.616 109.41 93.8229 90.1504 93.8229 73.5733ZM128.41 28.2737C128.512 28.8243 128.579 29.3807 128.61 29.9398C128.61 30.1397 128.61 30.323 128.61 30.5229C128.627 30.8503 128.627 31.1784 128.61 31.5059C128.61 41.6021 121.529 53.8974 112.766 58.9455L111.816 59.462C111.5 59.6286 111.183 59.7619 110.883 59.8952L109.967 60.2783H109.867C111.233 68.0088 117.664 70.7077 125.461 66.2428C134.208 61.2447 141.288 48.8826 141.288 38.7864C141.355 29.8398 135.774 25.5914 128.41 28.2737Z" fill="#E79822"/>
<path opacity="0.3" d="M93.8229 73.5733V68.5752C93.9039 62.1689 94.9716 55.8134 96.9884 49.7323C102.136 33.8217 112.982 18.5941 125.528 11.4134C133.508 6.79851 140.789 6.23206 146.37 8.99768L135.391 2.6834C132.683 0.897961 129.504 -0.03624 126.261 0.00107582C125.749 -0.00395474 125.237 0.0238716 124.728 0.0843796C124.195 0.0843796 123.662 0.18434 123.062 0.267642C122.501 0.332421 121.944 0.432584 121.396 0.567529C120.833 0.688416 120.277 0.838564 119.73 1.01736C118.554 1.36358 117.402 1.78655 116.281 2.28355C115.698 2.53346 115.115 2.83334 114.515 3.11657C113.915 3.3998 113.316 3.74966 112.732 4.08287C95.3224 14.1457 81.1444 39.7361 81.1444 61.3946V66.3927C81.1444 87.9346 110.117 111.376 110.117 111.376L121.779 118.04C121.574 117.904 121.379 117.754 121.196 117.59C112.616 109.41 93.8229 90.1504 93.8229 73.5733Z" fill="#315E6D"/>
<path opacity="0.5" d="M128.41 28.2738C128.512 28.8244 128.579 29.3808 128.61 29.9399C128.61 30.1398 128.61 30.3231 128.61 30.523C128.627 30.8504 128.627 31.1785 128.61 31.506C128.61 41.6021 121.529 53.8975 112.766 58.9456L111.816 59.4621C111.5 59.6287 111.183 59.762 110.883 59.8952L109.967 60.2784H109.867C111.233 68.0089 117.664 70.7078 125.461 66.2429C134.208 61.2447 141.288 48.8827 141.288 38.7865C141.355 29.8399 135.774 25.5915 128.41 28.2738Z" fill="#315E6D"/>
<path d="M157.199 32.0723C157.199 10.5304 143.021 1.25057 125.544 11.3634C108.068 21.4763 93.8896 47.1166 93.8896 68.6585V73.6566C93.8896 90.317 112.682 109.493 121.329 117.473C121.818 117.912 122.401 118.232 123.033 118.408C123.665 118.584 124.33 118.612 124.975 118.49C125.62 118.367 126.228 118.098 126.751 117.702C127.275 117.306 127.7 116.794 127.993 116.207C135.457 100.93 157.199 54.897 157.199 37.0537V32.0723ZM125.544 66.2427C116.798 71.2408 109.7 67.209 109.7 57.0962C109.7 46.9833 116.764 34.7379 125.511 29.7398C134.258 24.7417 141.355 28.7735 141.355 38.8864C141.355 48.9992 134.258 61.1946 125.511 66.2427H125.544Z" fill="#E79822"/>
<path d="M157.199 32.0723C157.199 10.5304 143.021 1.25057 125.544 11.3634C108.068 21.4763 93.8896 47.1166 93.8896 68.6585V73.6566C93.8896 90.317 112.682 109.493 121.329 117.473C121.818 117.912 122.401 118.232 123.033 118.408C123.665 118.584 124.33 118.612 124.975 118.49C125.62 118.367 126.228 118.098 126.751 117.702C127.275 117.306 127.7 116.794 127.993 116.207C135.457 100.93 157.199 54.897 157.199 37.0537V32.0723ZM125.544 66.2427C116.798 71.2408 109.7 67.209 109.7 57.0962C109.7 46.9833 116.764 34.7379 125.511 29.7398C134.258 24.7417 141.355 28.7735 141.355 38.8864C141.355 48.9992 134.258 61.1946 125.511 66.2427H125.544Z" fill="#E79822"/>
<path d="M366.287 209.089V207.423C366.315 205.315 366.669 203.225 367.336 201.225C368.896 196.056 372.214 191.594 376.716 188.613C377.698 187.915 378.841 187.475 380.037 187.336C381.234 187.196 382.447 187.36 383.564 187.814L379.948 185.731C379.063 185.152 378.024 184.85 376.966 184.865H376.383H375.867C375.681 184.882 375.497 184.915 375.317 184.965L374.784 185.098C374.395 185.213 374.017 185.358 373.651 185.531L373.068 185.798L372.468 186.114C366.72 189.446 362.055 197.777 362.055 204.941V206.607C362.055 213.687 371.585 221.384 371.585 221.384L375.433 223.567L375.25 223.417C372.468 220.851 366.287 214.537 366.287 209.089ZM377.666 194.195C377.675 194.378 377.675 194.561 377.666 194.744V194.928C377.674 195.039 377.674 195.15 377.666 195.261C377.566 197.067 377.042 198.825 376.136 200.391C375.23 201.957 373.968 203.287 372.451 204.274L372.151 204.441L371.835 204.591L371.535 204.707C371.968 207.24 374.084 208.123 376.65 206.657C378.162 205.667 379.42 204.335 380.323 202.77C381.226 201.204 381.748 199.448 381.848 197.643C381.914 194.678 380.082 193.312 377.666 194.195Z" fill="#E79822"/>
<path opacity="0.6" d="M366.287 209.089V207.423C366.315 205.315 366.669 203.225 367.336 201.225C368.896 196.056 372.214 191.594 376.716 188.613C377.698 187.915 378.841 187.475 380.037 187.336C381.234 187.196 382.447 187.36 383.564 187.814L379.948 185.731C379.063 185.152 378.024 184.85 376.966 184.865H376.383H375.867C375.681 184.882 375.497 184.915 375.317 184.965L374.784 185.098C374.395 185.213 374.017 185.358 373.651 185.531L373.068 185.798L372.468 186.114C366.72 189.446 362.055 197.777 362.055 204.941V206.607C362.055 213.687 371.585 221.384 371.585 221.384L375.433 223.567L375.25 223.417C372.468 220.851 366.287 214.537 366.287 209.089Z" fill="white"/>
<path opacity="0.6" d="M377.616 194.195C377.625 194.378 377.625 194.561 377.616 194.744C377.616 194.744 377.616 194.861 377.616 194.928V195.261C377.519 197.066 376.998 198.823 376.095 200.389C375.192 201.955 373.932 203.286 372.418 204.274L372.101 204.441L371.801 204.591L371.485 204.707C371.935 207.24 374.051 208.123 376.6 206.657C378.114 205.669 379.374 204.338 380.277 202.772C381.18 201.206 381.701 199.449 381.798 197.643C381.864 194.678 380.048 193.312 377.616 194.195Z" fill="white"/>
<path d="M387.129 195.444C387.129 188.363 382.464 185.314 376.716 188.63C370.968 191.945 366.387 200.392 366.387 207.473V209.139C366.387 214.587 372.551 220.901 375.4 223.533C375.561 223.683 375.754 223.793 375.965 223.854C376.175 223.915 376.398 223.926 376.613 223.886C376.829 223.845 377.032 223.754 377.206 223.621C377.38 223.487 377.521 223.315 377.616 223.117C380.065 218.119 387.212 202.974 387.212 197.11L387.129 195.444ZM376.716 206.673C373.834 208.339 371.502 206.99 371.502 203.674C371.604 201.871 372.129 200.116 373.035 198.554C373.941 196.991 375.202 195.663 376.716 194.678C379.582 193.012 381.914 194.361 381.914 197.693C381.811 199.492 381.287 201.242 380.384 202.802C379.481 204.362 378.225 205.688 376.716 206.673Z" fill="#E79822"/>
<path d="M387.129 195.444C387.129 188.363 382.464 185.314 376.716 188.63C370.968 191.945 366.387 200.392 366.387 207.473V209.139C366.387 214.587 372.551 220.901 375.4 223.533C375.561 223.683 375.754 223.793 375.965 223.854C376.175 223.915 376.398 223.926 376.613 223.886C376.829 223.845 377.032 223.754 377.206 223.621C377.38 223.487 377.521 223.315 377.616 223.117C380.065 218.119 387.212 202.974 387.212 197.11L387.129 195.444ZM376.716 206.673C373.834 208.339 371.502 206.99 371.502 203.674C371.604 201.871 372.129 200.116 373.035 198.554C373.941 196.991 375.202 195.663 376.716 194.678C379.582 193.012 381.914 194.361 381.914 197.693C381.811 199.492 381.287 201.242 380.384 202.802C379.481 204.362 378.225 205.688 376.716 206.673Z" fill="#E79822"/>
<g opacity="0.8">
<path d="M387.129 195.444C387.129 188.363 382.464 185.314 376.716 188.63C370.968 191.945 366.387 200.392 366.387 207.473V209.139C366.387 214.587 372.551 220.901 375.4 223.533C375.561 223.683 375.754 223.793 375.965 223.854C376.175 223.915 376.398 223.926 376.613 223.886C376.829 223.845 377.032 223.754 377.206 223.621C377.38 223.487 377.521 223.315 377.616 223.117C380.065 218.119 387.212 202.974 387.212 197.11L387.129 195.444ZM376.716 206.673C373.834 208.339 371.502 206.99 371.502 203.674C371.604 201.871 372.129 200.116 373.035 198.554C373.941 196.991 375.202 195.663 376.716 194.678C379.582 193.012 381.914 194.361 381.914 197.693C381.811 199.492 381.287 201.242 380.384 202.802C379.481 204.362 378.225 205.688 376.716 206.673Z" fill="white"/>
</g>
<path d="M560.33 317.964V316.298C560.358 314.191 560.712 312.1 561.38 310.101C562.939 304.931 566.257 300.47 570.76 297.489C571.742 296.79 572.884 296.351 574.081 296.211C575.278 296.071 576.491 296.236 577.607 296.689L573.992 294.64C573.1 294.06 572.056 293.759 570.993 293.773H570.493H569.96L569.427 293.873L568.877 294.007C568.491 294.127 568.112 294.272 567.744 294.44L567.178 294.706L566.578 295.023C560.83 298.355 556.165 306.769 556.165 313.849V315.515C556.165 322.596 565.695 330.293 565.695 330.293L569.544 332.476L569.36 332.326C566.511 329.627 560.33 323.329 560.33 317.964ZM571.709 303.07C571.718 303.253 571.718 303.437 571.709 303.62V303.803C571.718 303.914 571.718 304.025 571.709 304.136C571.61 305.943 571.085 307.7 570.179 309.266C569.273 310.832 568.011 312.163 566.495 313.15L566.195 313.316L565.878 313.466L565.578 313.583C566.028 316.115 568.144 316.915 570.71 315.532C572.222 314.542 573.48 313.211 574.383 311.645C575.286 310.079 575.809 308.323 575.908 306.519C575.958 303.503 574.125 302.104 571.709 302.97V303.07Z" fill="#E79822"/>
<path opacity="0.6" d="M560.33 317.964V316.298C560.358 314.191 560.712 312.1 561.38 310.101C562.939 304.931 566.257 300.47 570.76 297.489C571.742 296.79 572.884 296.351 574.081 296.211C575.278 296.071 576.491 296.236 577.607 296.689L573.992 294.64C573.1 294.06 572.056 293.759 570.993 293.773H570.493H569.96L569.427 293.873L568.877 294.007C568.491 294.127 568.112 294.272 567.744 294.44L567.178 294.706L566.578 295.023C560.83 298.355 556.165 306.769 556.165 313.849V315.515C556.165 322.596 565.695 330.293 565.695 330.293L569.544 332.476L569.36 332.326C566.511 329.627 560.33 323.329 560.33 317.964Z" fill="white"/>
<path opacity="0.6" d="M571.659 302.97C571.668 303.153 571.668 303.337 571.659 303.52C571.659 303.52 571.659 303.636 571.659 303.703V304.036C571.563 305.842 571.042 307.599 570.138 309.165C569.235 310.731 567.975 312.062 566.461 313.05L566.145 313.216L565.845 313.366L565.528 313.483C565.978 316.015 568.094 316.815 570.643 315.432C572.157 314.444 573.417 313.113 574.32 311.547C575.223 309.981 575.744 308.224 575.841 306.419C575.908 303.503 574.075 302.104 571.659 302.97Z" fill="white"/>
<path d="M581.172 304.236C581.172 297.156 576.508 294.107 570.76 297.422C565.012 300.738 560.33 309.184 560.33 316.265V317.931C560.33 323.379 566.511 329.693 569.36 332.326C569.521 332.475 569.714 332.585 569.925 332.646C570.136 332.708 570.358 332.718 570.573 332.678C570.789 332.637 570.992 332.547 571.166 332.413C571.341 332.279 571.481 332.107 571.576 331.909C574.025 326.911 581.172 311.767 581.172 305.902V304.236ZM570.76 315.465C567.877 317.131 565.545 315.782 565.545 312.466C565.642 310.657 566.165 308.896 567.071 307.327C567.978 305.758 569.241 304.425 570.76 303.437C573.625 301.77 575.958 303.12 575.958 306.452C575.86 308.257 575.338 310.014 574.435 311.579C573.532 313.145 572.273 314.477 570.76 315.465Z" fill="#E79822"/>
<path d="M581.172 304.236C581.172 297.156 576.508 294.107 570.76 297.422C565.012 300.738 560.33 309.184 560.33 316.265V317.931C560.33 323.379 566.511 329.693 569.36 332.326C569.521 332.475 569.714 332.585 569.925 332.646C570.136 332.708 570.358 332.718 570.573 332.678C570.789 332.637 570.992 332.547 571.166 332.413C571.341 332.279 571.481 332.107 571.576 331.909C574.025 326.911 581.172 311.767 581.172 305.902V304.236ZM570.76 315.465C567.877 317.131 565.545 315.782 565.545 312.466C565.642 310.657 566.165 308.896 567.071 307.327C567.978 305.758 569.241 304.425 570.76 303.437C573.625 301.77 575.958 303.12 575.958 306.452C575.86 308.257 575.338 310.014 574.435 311.579C573.532 313.145 572.273 314.477 570.76 315.465Z" fill="#E79822"/>
<g opacity="0.8">
<path d="M581.172 304.236C581.172 297.156 576.508 294.107 570.76 297.422C565.012 300.738 560.33 309.184 560.33 316.265V317.931C560.33 323.379 566.511 329.693 569.36 332.326C569.521 332.475 569.714 332.585 569.925 332.646C570.136 332.708 570.358 332.718 570.573 332.678C570.789 332.637 570.992 332.547 571.166 332.413C571.341 332.279 571.481 332.107 571.576 331.909C574.025 326.911 581.172 311.767 581.172 305.902V304.236ZM570.76 315.465C567.877 317.131 565.545 315.782 565.545 312.466C565.642 310.657 566.165 308.896 567.071 307.327C567.978 305.758 569.241 304.425 570.76 303.437C573.625 301.77 575.958 303.12 575.958 306.452C575.86 308.257 575.338 310.014 574.435 311.579C573.532 313.145 572.273 314.477 570.76 315.465Z" fill="white"/>
</g>
<path d="M756.057 685.193V670.582L646.881 645.474V660.069C646.916 660.512 647.091 660.932 647.381 661.268L689.882 720.879C690.931 722.345 692.064 722.095 692.397 720.329L697.779 692.357C697.999 691.47 698.489 690.673 699.181 690.076C699.873 689.479 700.734 689.112 701.644 689.025L754.657 685.693C755.59 685.509 756.04 685.376 756.057 685.193Z" fill="#E79822"/>
<path opacity="0.3" d="M756.057 685.193V670.582L646.881 645.474V660.069C646.916 660.512 647.091 660.932 647.381 661.268L689.882 720.879C690.931 722.345 692.064 722.095 692.397 720.329L697.779 692.357C697.999 691.47 698.489 690.673 699.181 690.076C699.873 689.479 700.734 689.112 701.644 689.025L754.657 685.693C755.59 685.509 756.04 685.376 756.057 685.193Z" fill="#315E6D"/>
<path opacity="0.2" d="M690.831 721.729C691.548 722.062 692.181 721.596 692.414 720.346L697.795 692.373C697.941 691.711 698.244 691.094 698.678 690.574V670.032L690.831 681.527V721.729Z" fill="#315E6D"/>
<path d="M692.414 705.718L697.795 677.829C698.015 676.942 698.505 676.145 699.198 675.548C699.89 674.951 700.75 674.584 701.66 674.497L754.69 671.165C756.473 671.048 756.506 670.615 754.69 670.198L648.597 644.974C646.848 644.558 646.281 645.408 647.331 646.874L689.832 706.485C690.948 707.817 692.081 707.484 692.414 705.718Z" fill="#E79822"/>
</svg>
